<svg xmlns="http://www.w3.org/2000/svg" viewBox="0 0 180 32" fill="none">
  <!-- Leaf icon -->
  <g transform="translate(0, 2)">
    <path d="M14 2C8 6 3 13 3 20c0 4 2 7 5 8.5C9.5 22 12 15 14 10c2 5 4.5 12 6 18.5 3-1.5 5-4.5 5-8.5C25 13 20 6 14 2z" fill="#0D4F3C"/>
    <path d="M14 10v16" stroke="#ffffff" stroke-width="1.2" stroke-linecap="round" opacity="0.6"/>
    <path d="M14 16c-2.5-1.5-4-3-5-5" stroke="#ffffff" stroke-width="1" stroke-linecap="round" opacity="0.4"/>
    <path d="M14 20c2.5-1.5 4-3 5-5" stroke="#ffffff" stroke-width="1" stroke-linecap="round" opacity="0.4"/>
  </g>
  <!-- Text -->
  <text x="32" y="22" font-family="Inter, system-ui, sans-serif" font-size="16" font-weight="600" fill="#0D4F3C" letter-spacing="0.02em">Evergreen Health</text>
</svg>
